<svg xmlns="http://www.w3.org/2000/svg" viewBox="0 0 640 10"><defs><style>.cls-1{fill:#fff;}</style></defs><g id="Layer_2" data-name="Layer 2"><g id="Layer_1-2" data-name="Layer 1"><path class="cls-1" d="M6.15,10a9,9,0,1,1,18,0h7.41a9,9,0,1,1,18,0h7.42a9,9,0,1,1,18,0h7.42a9,9,0,1,1,18,0h7.42a9,9,0,1,1,18,0h7.42a9,9,0,1,1,18,0h7.42a9,9,0,1,1,18,0h7.42a9,9,0,1,1,18,0h7.42a9,9,0,1,1,18,0h7.42a9,9,0,1,1,18,0H260a9,9,0,0,1,18,0h7.41a9,9,0,0,1,18,0h7.41a9,9,0,0,1,18,0h7.41a9,9,0,0,1,18,0h7.41a9,9,0,0,1,18,0H387a9,9,0,0,1,18,0h7.41a9,9,0,0,1,18,0h7.41a9,9,0,0,1,18,0h7.41a9,9,0,0,1,18,0h7.41a9,9,0,1,1,18,0h7.42a9,9,0,1,1,18,0h7.42a9,9,0,1,1,18,0h7.42a9,9,0,1,1,18,0h7.42a9,9,0,1,1,18,0h7.42a9,9,0,1,1,18,0H640V0H0V10Z"/></g></g></svg>