<svg xmlns="http://www.w3.org/2000/svg" viewBox="0 0 640 10"><defs><style>.cls-1{fill:#fff;}</style></defs><g id="Layer_2" data-name="Layer 2"><g id="Layer_1-2" data-name="Layer 1"><path class="cls-1" d="M633.85,0a9,9,0,0,1-9,9,9,9,0,0,1-9-9h-7.42a9,9,0,0,1-9,9,9,9,0,0,1-9-9h-7.42a9,9,0,0,1-9,9,9,9,0,0,1-9-9h-7.42a9,9,0,0,1-9,9,9,9,0,0,1-9-9h-7.42a9,9,0,0,1-9,9,9,9,0,0,1-9-9H506.9a9,9,0,0,1-9,9,9,9,0,0,1-9-9h-7.42a9,9,0,0,1-9,9,9,9,0,0,1-9-9h-7.42a9,9,0,0,1-9,9,9,9,0,0,1-9-9h-7.42a9,9,0,0,1-9,9,9,9,0,0,1-9-9h-7.42a9,9,0,0,1-9,9,9,9,0,0,1-9-9H380a9,9,0,0,1-9,9,9,9,0,0,1-9-9h-7.41a9,9,0,0,1-9,9,9,9,0,0,1-9-9h-7.41a9,9,0,0,1-9,9,9,9,0,0,1-9-9h-7.41a9,9,0,0,1-9,9,9,9,0,0,1-9-9H278.4a9,9,0,0,1-9,9,9,9,0,0,1-9-9H253a9,9,0,0,1-9,9,9,9,0,0,1-9-9h-7.41a9,9,0,0,1-9,9,9,9,0,0,1-9-9h-7.41a9,9,0,0,1-9,9,9,9,0,0,1-9-9h-7.41a9,9,0,0,1-9,9,9,9,0,0,1-9-9h-7.41a9,9,0,0,1-9,9,9,9,0,0,1-9-9h-7.42a9,9,0,0,1-9,9,9,9,0,0,1-9-9h-7.42a9,9,0,0,1-9,9,9,9,0,0,1-9-9H75.28a9,9,0,0,1-9,9,9,9,0,0,1-9-9H49.89a9,9,0,0,1-9,9,9,9,0,0,1-9-9H24.5a9,9,0,0,1-9,9,9,9,0,0,1-9-9H0V10H640V0Z"/></g></g></svg>