<?xml version="1.0" standalone="no"?>
<!DOCTYPE svg PUBLIC "-//W3C//DTD SVG 20010904//EN"
 "http://www.w3.org/TR/2001/REC-SVG-20010904/DTD/svg10.dtd">
<svg version="1.0" xmlns="http://www.w3.org/2000/svg"
 width="512.000000pt" height="512.000000pt" viewBox="0 0 512.000000 512.000000"
 preserveAspectRatio="xMidYMid meet">
<metadata>
Created by potrace 1.11, written by Peter Selinger 2001-2013
</metadata>
<g transform="translate(0.000000,512.000000) scale(0.100000,-0.100000)"
fill="#000000" stroke="none">
<path d="M653 5101 c-26 -12 -52 -35 -70 -62 l-28 -43 -3 -2420 c-2 -2195 -1
-2425 13 -2463 20 -51 62 -89 114 -103 26 -7 643 -9 1903 -8 l1864 3 43 28
c27 18 50 44 62 70 18 41 19 98 19 2000 0 1831 -1 1961 -17 1995 -10 22 -213
232 -500 519 -396 395 -489 484 -520 492 -26 7 -491 11 -1438 11 -1354 0
-1401 -1 -1442 -19z m2637 -729 c0 -419 1 -427 59 -480 51 -46 58 -47 466 -52
l390 -5 0 -1735 0 -1735 -1638 0 c-902 0 -1642 2 -1646 5 -9 7 -9 4373 0 4380
4 3 539 5 1188 5 l1181 0 0 -383z m650 -162 c0 -4 -262 -5 -280 -1 -4 1 -5
228 -1 276 1 9 281 -265 281 -275z"/>
<path d="M1413 3464 c-113 -29 -166 -168 -103 -271 10 -17 39 -43 63 -57 l44
-26 1150 2 1149 3 43 28 c118 78 98 264 -34 318 -41 16 -2247 19 -2312 3z"/>
<path d="M1425 2735 c-94 -21 -155 -107 -141 -199 9 -59 42 -106 96 -135 l44
-24 1135 0 1136 0 42 21 c133 68 135 248 4 321 l-44 24 -1113 1 c-710 1 -1130
-3 -1159 -9z"/>
<path d="M1383 1991 c-79 -36 -124 -150 -90 -230 17 -41 67 -90 106 -103 43
-14 2244 -19 2301 -5 135 34 184 217 83 309 -55 50 -11 48 -1225 48 -1091 0
-1135 -1 -1175 -19z"/>
<path d="M1382 1259 c-65 -32 -97 -86 -97 -165 0 -54 4 -67 31 -101 16 -21 48
-47 70 -58 38 -19 62 -20 1159 -21 874 0 1130 2 1164 12 81 24 131 94 127 181
-4 73 -38 123 -108 156 -33 16 -119 17 -1170 17 l-1133 0 -43 -21z"/>
</g>
</svg>
